# File created by Blade
# Date/Time:  Tue Apr 07 21:33:03 2015
# Frame Rate: 120.000 fps
#------------------------------------------------------
:FULLY-SPECIFIED
:DEGREES
986
root -7.880079 32.997257 4.529406 12.224171 -31.929019 -0.546791
Spine -7.542099 -1.527191 -0.352452
Head 2.439920 9.648555 -3.058302
LeftShoulder -22.608333 41.007203 13.300535
LeftArm 61.565887 -43.643443 -69.364640
LeftForeArm -0.745230 -0.000000 3.265667
LeftHand 10.533697 0.000000 14.054948
LeftHandThumb1 -26.253704 0.000000 33.147579
RightShoulder -4.876318 0.748613 -26.674000
RightArm 13.666780 9.287967 59.176696
RightForeArm -3.747826 -0.000000 8.473642
RightHand 8.780681 -0.000000 -5.046192
RightHandThumb1 -24.326973 -0.000000 -32.862282
LeftUpLeg -33.232598 -0.717633 3.116968
LeftLeg 45.945316 -0.000000 -0.000000
LeftFoot -10.939800 8.352635 -24.985136
LeftToeBase -14.781002 -0.000000 0.000000
RightUpLeg -11.860250 -8.691794 7.637437
RightLeg 8.069876 -0.000000 -0.000000
RightFoot -9.743819 -20.808418 3.354679
RightToeBase -7.399434 -0.000000 0.000000
987
root -7.807278 32.983740 4.409617 12.275710 -31.293646 -0.648768
Spine -7.680517 -1.605070 -0.229950
Head 2.546068 9.469605 -3.087740
LeftShoulder -22.783269 41.085983 13.100077
LeftArm 61.788991 -43.601946 -69.365113
LeftForeArm -0.559168 0.000000 3.471027
LeftHand 10.599880 -0.000000 14.080950
LeftHandThumb1 -26.253704 0.000000 33.147579
RightShoulder -4.911726 0.803219 -26.684085
RightArm 13.588343 9.564585 59.116990
RightForeArm -3.727649 -0.000000 8.407214
RightHand 8.724386 -0.000000 -5.034943
RightHandThumb1 -24.326973 -0.000000 -32.862282
LeftUpLeg -32.476827 -0.899591 3.269804
LeftLeg 46.963987 -0.000000 -0.000000
LeftFoot -11.233556 7.972864 -24.915682
LeftToeBase -15.044222 -0.000000 0.000000
RightUpLeg -12.082907 -9.218946 7.881247
RightLeg 7.991667 -0.000000 -0.000000
RightFoot -9.880231 -20.746455 3.504591
RightToeBase -7.199848 -0.000000 0.000000
988
root -7.732764 32.970020 4.286490 12.335063 -30.650055 -0.761919
Spine -7.810794 -1.595372 -0.119128
Head 2.656078 9.167824 -3.079853
LeftShoulder -22.782507 41.176399 13.034621
LeftArm 61.972086 -43.552913 -69.336904
LeftForeArm -0.410415 -0.000000 3.659233
LeftHand 10.559884 -0.000000 14.271518
LeftHandThumb1 -26.253704 0.000000 33.147579
RightShoulder -5.001885 0.757787 -26.669770
RightArm 13.500115 9.853157 59.035492
RightForeArm -3.775904 -0.000000 8.474841
RightHand 8.508488 -0.000000 -5.077890
RightHandThumb1 -24.326973 -0.000000 -32.862282
LeftUpLeg -31.701920 -1.102867 3.460106
LeftLeg 47.910394 -0.000000 -0.000000
LeftFoot -11.502105 7.565763 -24.909803
LeftToeBase -14.773901 -0.000000 0.000000
RightUpLeg -12.337861 -9.707533 8.134922
RightLeg 7.972350 -0.000000 -0.000000
RightFoot -10.000071 -20.742186 3.625244
RightToeBase -6.843859 -0.000000 0.000000
989
root -7.657285 32.956767 4.164859 12.395689 -29.959002 -0.869428
Spine -7.954895 -1.664797 -0.000805
Head 2.785148 8.893594 -3.052055
LeftShoulder -22.786717 41.257040 13.006229
LeftArm 62.130423 -43.475138 -69.332624
LeftForeArm -0.283326 -0.000000 3.834378
LeftHand 10.670307 -0.000000 14.435660
LeftHandThumb1 -26.253704 0.000000 33.147579
RightShoulder -5.064862 0.695003 -26.635690
RightArm 13.427676 10.138122 58.930502
RightForeArm -3.807249 0.000000 8.523354
RightHand 8.541183 -0.000000 -5.121158
RightHandThumb1 -24.326973 -0.000000 -32.862282
LeftUpLeg -30.916408 -1.331315 3.645597
LeftLeg 48.758883 -0.000000 -0.000000
LeftFoot -11.666295 7.218215 -24.702532
LeftToeBase -14.713947 -0.000000 0.000000
RightUpLeg -12.573388 -10.148382 8.377759
RightLeg 7.896743 -0.000000 -0.000000
RightFoot -10.043227 -20.754284 3.682741
RightToeBase -6.884034 -0.000000 0.000000
